<svg width="306" height="41" viewBox="0 0 306 41" fill="none" xmlns="http://www.w3.org/2000/svg">
<g transform="translate(88.599 30.760) scale(1.096724 1)">
<path d="M11.550 0L-0.546 0L-0.294-1.260Q1.302-1.260 2.184-1.533Q3.066-1.806 3.528-2.667Q3.990-3.528 4.326-5.250L7.896-22.512Q8.274-24.192 8.085-25.011Q7.896-25.830 7.077-26.082Q6.258-26.334 4.704-26.334L4.956-27.594L15.582-27.594Q19.152-27.594 21.126-26.880Q23.100-26.166 23.898-24.927Q24.696-23.688 24.696-22.176Q24.696-19.908 23.688-18.417Q22.680-16.926 21.021-16.023Q19.362-15.120 17.346-14.658L17.346-14.448Q18.984-14.238 20.349-13.545Q21.714-12.852 22.533-11.655Q23.352-10.458 23.352-8.694Q23.352-5.880 21.777-3.948Q20.202-2.016 17.535-1.008Q14.868 0 11.550 0M9.954-1.512Q11.382-1.512 12.957-1.743Q14.532-1.974 15.918-2.709Q17.304-3.444 18.165-4.851Q19.026-6.258 19.026-8.568Q19.026-10.500 18.081-11.571Q17.136-12.642 15.582-13.083Q14.028-13.524 12.264-13.524L9.786-13.524L7.392-1.638Q8.106-1.596 8.631-1.554Q9.156-1.512 9.954-1.512M12.306-25.872L10.122-15.204L12.558-15.204Q16.926-15.204 18.732-16.989Q20.538-18.774 20.538-21.882Q20.538-23.016 19.992-23.961Q19.446-24.906 18.102-25.452Q16.758-25.998 14.406-25.998Q13.776-25.998 13.377-25.977Q12.978-25.956 12.306-25.872M30.072 0.420Q28.476 0.420 27.888-0.504Q27.300-1.428 27.300-2.604Q27.300-3.444 27.468-4.347Q27.636-5.250 27.720-5.670L29.736-14.700L29.862-15.204Q29.946-15.708 30.051-16.338Q30.156-16.968 30.156-17.346Q30.156-18.018 29.673-18.249Q29.190-18.480 28.644-18.480Q28.224-18.480 27.888-18.459Q27.552-18.438 27.216-18.396L27.216-19.530L32.886-19.992L34.188-19.992L31.290-6.342L31.164-5.628Q30.996-4.914 30.996-4.326Q30.996-3.570 31.290-3.087Q31.584-2.604 32.256-2.604Q33.180-2.604 34.251-3.402Q35.322-4.200 36.393-5.502Q37.464-6.804 38.388-8.316Q39.312-9.828 39.984-11.319Q40.656-12.810 40.908-13.944L42.252-19.866L45.738-19.866L42.630-4.998L42.504-4.326Q42.378-3.654 42.378-3.192Q42.378-2.940 42.567-2.709Q42.756-2.478 43.260-2.478Q44.016-2.478 44.709-3.024Q45.402-3.570 45.864-4.116L46.326-4.662L47.208-4.032Q46.284-2.688 45.402-1.701Q44.520-0.714 43.533-0.168Q42.546 0.378 41.244 0.378Q40.404 0.378 39.564-0.063Q38.724-0.504 38.724-1.890Q38.724-3.360 39.123-4.788Q39.522-6.216 40.068-8.274L39.690-8.274Q39.060-7.182 38.157-5.712Q37.254-4.242 36.078-2.835Q34.902-1.428 33.411-0.504Q31.920 0.420 30.072 0.420M55.188-5.922L53.928 0L50.358 0L53.466-14.616Q53.592-15.204 53.718-15.939Q53.844-16.674 53.844-17.220Q53.844-17.808 53.592-18.144Q53.340-18.480 52.458-18.480Q52.122-18.480 51.660-18.438L51.156-18.396L51.156-19.530L56.994-19.992L57.918-19.992L55.776-10.878L56.196-10.878Q56.490-11.508 56.910-12.432Q57.456-13.608 58.149-14.931Q58.842-16.254 59.661-17.451Q60.480-18.648 61.446-19.383Q62.412-20.118 63.462-20.118Q64.428-20.118 65.100-19.509Q65.772-18.900 65.772-17.682Q65.772-16.296 65.079-15.666Q64.386-15.036 63.546-15.036Q62.874-15.036 62.475-15.435Q62.076-15.834 61.908-16.212Q61.740-16.590 61.656-16.590Q61.026-16.590 60.186-15.561Q59.346-14.532 58.464-12.915Q57.582-11.298 56.763-9.513Q55.944-7.728 55.314-6.174Q55.272-6.048 55.188-5.922M70.812 0.504Q69.384 0.504 68.229-0.231Q67.074-0.966 66.381-2.520Q65.688-4.074 65.688-6.552Q65.688-9.366 66.570-11.823Q67.452-14.280 68.943-16.149Q70.434-18.018 72.324-19.068Q74.214-20.118 76.230-20.118Q77.826-20.118 78.792-19.488Q79.758-18.858 80.430-17.892L80.598-17.892L82.068-19.824L84.210-19.824L81.102-4.956L81.018-4.410Q80.892-3.864 80.892-3.402Q80.892-2.982 81.060-2.751Q81.228-2.520 81.690-2.520Q82.362-2.520 82.950-2.919Q83.538-3.318 84.021-3.843Q84.504-4.368 84.756-4.704L85.596-4.074Q84.798-2.856 83.916-1.827Q83.034-0.798 81.984-0.189Q80.934 0.420 79.632 0.420Q78.540 0.420 77.952-0.063Q77.364-0.546 77.364-1.554Q77.364-2.016 77.469-2.541Q77.574-3.066 77.616-3.570L77.364-3.570Q75.810-1.554 74.172-0.525Q72.534 0.504 70.812 0.504M72.324-2.268Q73.626-2.268 74.802-2.961Q75.978-3.654 76.881-4.851Q77.784-6.048 78.162-7.560Q78.372-8.400 78.687-9.765Q79.002-11.130 79.233-12.495Q79.464-13.860 79.464-14.658Q79.464-16.086 78.582-17.304Q77.700-18.522 75.978-18.522Q74.550-18.522 73.332-17.556Q72.114-16.590 71.232-14.952Q70.350-13.314 69.867-11.277Q69.384-9.240 69.384-7.098Q69.384-4.284 70.203-3.276Q71.022-2.268 72.324-2.268M93.072-7.770L91.560 0L88.116 0L93.282-25.536L93.366-25.956Q93.408-26.376 93.408-26.880Q93.408-27.300 93.177-27.720Q92.946-28.140 92.106-28.140Q91.560-28.140 91.098-28.098L90.636-28.056L90.636-29.148L96.432-29.610L97.356-29.610L93.408-9.996L93.618-9.996L99.750-15.876Q100.212-16.338 100.464-16.695Q100.716-17.052 100.716-17.598Q100.716-18.186 100.212-18.375Q99.708-18.564 98.868-18.564L98.994-19.614L108.024-19.614L107.898-18.564Q105.756-18.522 104.559-17.745Q103.362-16.968 102.354-16.044L97.734-11.928L100.800-4.704Q101.262-3.654 101.703-3.045Q102.144-2.436 102.942-2.436Q104.160-2.436 104.916-3.150Q105.672-3.864 106.386-4.872L107.268-4.284Q107.058-3.906 106.575-3.129Q106.092-2.352 105.357-1.533Q104.622-0.714 103.635-0.147Q102.648 0.420 101.388 0.420Q100.338 0.420 99.645-0.147Q98.952-0.714 98.574-1.491Q98.196-2.268 97.944-2.856L95.256-9.912L93.072-7.770M117.894 0L107.226 0L107.478-1.260Q109.074-1.260 109.956-1.533Q110.838-1.806 111.300-2.667Q111.762-3.528 112.098-5.208L115.752-22.806Q116.046-24.360 115.836-25.095Q115.626-25.830 114.807-26.082Q113.988-26.334 112.476-26.334L112.728-27.594L123.648-27.594Q126.924-27.594 129.318-26.817Q131.712-26.040 133.266-24.612Q134.820-23.184 135.576-21.189Q136.332-19.194 136.332-16.716Q136.332-12.264 134.967-9.093Q133.602-5.922 131.124-3.906Q128.646-1.890 125.286-0.945Q121.926 0 117.894 0M117.894-1.638Q122.430-1.638 125.601-3.150Q128.772-4.662 130.452-7.917Q132.132-11.172 132.132-16.338Q132.132-18.270 131.691-19.992Q131.250-21.714 130.158-23.058Q129.066-24.402 127.071-25.158Q125.076-25.914 121.968-25.914Q121.422-25.914 121.065-25.893Q120.708-25.872 120.120-25.788L115.164-1.764Q115.752-1.680 116.424-1.659Q117.096-1.638 117.894-1.638M144.774 0.504Q142.464 0.504 141.120-0.567Q139.776-1.638 139.188-3.318Q138.600-4.998 138.600-6.846Q138.600-9.114 139.356-11.445Q140.112-13.776 141.540-15.750Q142.968-17.724 145.005-18.921Q147.042-20.118 149.604-20.118Q150.528-20.118 151.557-19.866Q152.586-19.614 153.342-18.795Q154.098-17.976 154.098-16.338Q154.098-14.322 152.901-12.873Q151.704-11.424 149.814-10.500Q147.924-9.576 145.824-9.114Q143.850-8.652 142.128-8.526Q142.128-8.232 142.128-7.938Q142.128-4.746 143.241-3.570Q144.354-2.394 146.454-2.394Q148.050-2.394 149.478-3.003Q150.906-3.612 152.124-5.124L152.880-4.494Q150.990-1.680 148.890-0.588Q146.790 0.504 144.774 0.504M142.296-9.744Q144.438-9.870 146.244-10.626Q148.176-11.466 149.331-12.957Q150.486-14.448 150.486-16.506Q150.486-17.640 150.087-18.228Q149.688-18.816 148.722-18.816Q147.336-18.816 146.139-17.703Q144.942-16.590 144.039-14.889Q143.136-13.188 142.632-11.340Q142.422-10.500 142.296-9.744M159.390 0.378Q158.130 0.378 157.437-0.189Q156.744-0.756 156.744-1.848Q156.744-2.394 156.891-3.255Q157.038-4.116 157.458-5.964L159.600-15.960L159.684-16.338Q159.726-16.716 159.726-17.262Q159.726-17.682 159.474-18.081Q159.222-18.480 158.382-18.480Q157.836-18.480 157.416-18.438L156.954-18.396L156.954-19.530L162.834-19.992L163.758-19.992L160.608-5.040L160.524-4.410Q160.398-3.738 160.398-3.276Q160.398-2.478 161.154-2.478Q162.246-2.478 163.086-3.297Q163.926-4.116 164.430-4.662L165.270-4.032Q164.556-3.024 163.716-1.995Q162.876-0.966 161.826-0.294Q160.776 0.378 159.390 0.378M162.456-23.352Q161.532-23.352 160.902-23.940Q160.272-24.528 160.272-25.620Q160.272-26.712 160.902-27.321Q161.532-27.930 162.582-27.930Q163.632-27.930 164.199-27.300Q164.766-26.670 164.766-25.620Q164.766-24.570 164.094-23.961Q163.422-23.352 162.456-23.352M171.108 0.378Q169.806 0.378 169.176-0.252Q168.546-0.882 168.546-1.848Q168.546-2.394 168.672-3.171Q168.798-3.948 168.840-4.242L171.696-17.976L169.302-17.976L169.470-18.858Q170.814-19.572 171.717-20.244Q172.620-20.916 173.439-22.008Q174.258-23.100 175.308-24.906L176.568-24.906L175.476-19.614L179.634-19.614L179.298-17.976L175.140-17.976L172.578-5.460L172.452-4.704Q172.284-3.906 172.284-3.360Q172.284-3.024 172.431-2.751Q172.578-2.478 172.998-2.478Q173.922-2.478 174.699-3.024Q175.476-3.570 176.568-4.998L177.408-4.368Q176.820-3.570 175.980-2.436Q175.140-1.302 173.964-0.462Q172.788 0.378 171.108 0.378M178.878 9.240Q178.038 9.240 177.282 8.883Q176.526 8.526 176.064 7.875Q175.602 7.224 175.602 6.384Q175.602 5.502 176.085 5.040Q176.568 4.578 177.240 4.578Q177.870 4.578 178.332 4.914Q178.794 5.250 179.130 5.712Q179.466 6.174 179.739 6.510Q180.012 6.846 180.264 6.846Q180.642 6.846 181.440 6.006Q182.238 5.166 183.162 3.948Q184.086 2.730 184.884 1.596Q185.388 0.840 185.724 0.336L183.330-14.406Q183.162-15.456 182.931-16.359Q182.700-17.262 182.112-17.808Q181.524-18.354 180.264-18.354Q179.970-18.354 179.697-18.333Q179.424-18.312 179.130-18.270L179.130-19.488L184.758-19.950L185.388-19.950Q185.850-19.152 186.144-18.354Q186.438-17.556 186.648-16.443Q186.858-15.330 187.110-13.650L188.034-7.518L188.412-3.318L188.664-3.318L193.494-11.088Q194.250-12.306 194.565-13.167Q194.880-14.028 194.880-14.532Q194.880-15.330 194.376-15.918Q193.872-16.506 193.347-17.136Q192.822-17.766 192.822-18.564Q192.822-19.278 193.284-19.761Q193.746-20.244 194.628-20.244Q195.720-20.244 196.518-19.425Q197.316-18.606 197.316-16.842Q197.316-15.708 196.896-14.385Q196.476-13.062 195.510-11.256Q194.712-9.786 193.620-8.043Q192.528-6.300 191.436-4.704Q190.344-3.108 189.567-1.974Q188.790-0.840 188.622-0.630Q186.354 2.604 184.695 4.809Q183.036 7.014 181.671 8.127Q180.306 9.240 178.878 9.240" fill="#000000" fill-opacity="0.3" transform="translate(0 1)"/>
<path d="M11.550 0L-0.546 0L-0.294-1.260Q1.302-1.260 2.184-1.533Q3.066-1.806 3.528-2.667Q3.990-3.528 4.326-5.250L7.896-22.512Q8.274-24.192 8.085-25.011Q7.896-25.830 7.077-26.082Q6.258-26.334 4.704-26.334L4.956-27.594L15.582-27.594Q19.152-27.594 21.126-26.880Q23.100-26.166 23.898-24.927Q24.696-23.688 24.696-22.176Q24.696-19.908 23.688-18.417Q22.680-16.926 21.021-16.023Q19.362-15.120 17.346-14.658L17.346-14.448Q18.984-14.238 20.349-13.545Q21.714-12.852 22.533-11.655Q23.352-10.458 23.352-8.694Q23.352-5.880 21.777-3.948Q20.202-2.016 17.535-1.008Q14.868 0 11.550 0M9.954-1.512Q11.382-1.512 12.957-1.743Q14.532-1.974 15.918-2.709Q17.304-3.444 18.165-4.851Q19.026-6.258 19.026-8.568Q19.026-10.500 18.081-11.571Q17.136-12.642 15.582-13.083Q14.028-13.524 12.264-13.524L9.786-13.524L7.392-1.638Q8.106-1.596 8.631-1.554Q9.156-1.512 9.954-1.512M12.306-25.872L10.122-15.204L12.558-15.204Q16.926-15.204 18.732-16.989Q20.538-18.774 20.538-21.882Q20.538-23.016 19.992-23.961Q19.446-24.906 18.102-25.452Q16.758-25.998 14.406-25.998Q13.776-25.998 13.377-25.977Q12.978-25.956 12.306-25.872M30.072 0.420Q28.476 0.420 27.888-0.504Q27.300-1.428 27.300-2.604Q27.300-3.444 27.468-4.347Q27.636-5.250 27.720-5.670L29.736-14.700L29.862-15.204Q29.946-15.708 30.051-16.338Q30.156-16.968 30.156-17.346Q30.156-18.018 29.673-18.249Q29.190-18.480 28.644-18.480Q28.224-18.480 27.888-18.459Q27.552-18.438 27.216-18.396L27.216-19.530L32.886-19.992L34.188-19.992L31.290-6.342L31.164-5.628Q30.996-4.914 30.996-4.326Q30.996-3.570 31.290-3.087Q31.584-2.604 32.256-2.604Q33.180-2.604 34.251-3.402Q35.322-4.200 36.393-5.502Q37.464-6.804 38.388-8.316Q39.312-9.828 39.984-11.319Q40.656-12.810 40.908-13.944L42.252-19.866L45.738-19.866L42.630-4.998L42.504-4.326Q42.378-3.654 42.378-3.192Q42.378-2.940 42.567-2.709Q42.756-2.478 43.260-2.478Q44.016-2.478 44.709-3.024Q45.402-3.570 45.864-4.116L46.326-4.662L47.208-4.032Q46.284-2.688 45.402-1.701Q44.520-0.714 43.533-0.168Q42.546 0.378 41.244 0.378Q40.404 0.378 39.564-0.063Q38.724-0.504 38.724-1.890Q38.724-3.360 39.123-4.788Q39.522-6.216 40.068-8.274L39.690-8.274Q39.060-7.182 38.157-5.712Q37.254-4.242 36.078-2.835Q34.902-1.428 33.411-0.504Q31.920 0.420 30.072 0.420M55.188-5.922L53.928 0L50.358 0L53.466-14.616Q53.592-15.204 53.718-15.939Q53.844-16.674 53.844-17.220Q53.844-17.808 53.592-18.144Q53.340-18.480 52.458-18.480Q52.122-18.480 51.660-18.438L51.156-18.396L51.156-19.530L56.994-19.992L57.918-19.992L55.776-10.878L56.196-10.878Q56.490-11.508 56.910-12.432Q57.456-13.608 58.149-14.931Q58.842-16.254 59.661-17.451Q60.480-18.648 61.446-19.383Q62.412-20.118 63.462-20.118Q64.428-20.118 65.100-19.509Q65.772-18.900 65.772-17.682Q65.772-16.296 65.079-15.666Q64.386-15.036 63.546-15.036Q62.874-15.036 62.475-15.435Q62.076-15.834 61.908-16.212Q61.740-16.590 61.656-16.590Q61.026-16.590 60.186-15.561Q59.346-14.532 58.464-12.915Q57.582-11.298 56.763-9.513Q55.944-7.728 55.314-6.174Q55.272-6.048 55.188-5.922M70.812 0.504Q69.384 0.504 68.229-0.231Q67.074-0.966 66.381-2.520Q65.688-4.074 65.688-6.552Q65.688-9.366 66.570-11.823Q67.452-14.280 68.943-16.149Q70.434-18.018 72.324-19.068Q74.214-20.118 76.230-20.118Q77.826-20.118 78.792-19.488Q79.758-18.858 80.430-17.892L80.598-17.892L82.068-19.824L84.210-19.824L81.102-4.956L81.018-4.410Q80.892-3.864 80.892-3.402Q80.892-2.982 81.060-2.751Q81.228-2.520 81.690-2.520Q82.362-2.520 82.950-2.919Q83.538-3.318 84.021-3.843Q84.504-4.368 84.756-4.704L85.596-4.074Q84.798-2.856 83.916-1.827Q83.034-0.798 81.984-0.189Q80.934 0.420 79.632 0.420Q78.540 0.420 77.952-0.063Q77.364-0.546 77.364-1.554Q77.364-2.016 77.469-2.541Q77.574-3.066 77.616-3.570L77.364-3.570Q75.810-1.554 74.172-0.525Q72.534 0.504 70.812 0.504M72.324-2.268Q73.626-2.268 74.802-2.961Q75.978-3.654 76.881-4.851Q77.784-6.048 78.162-7.560Q78.372-8.400 78.687-9.765Q79.002-11.130 79.233-12.495Q79.464-13.860 79.464-14.658Q79.464-16.086 78.582-17.304Q77.700-18.522 75.978-18.522Q74.550-18.522 73.332-17.556Q72.114-16.590 71.232-14.952Q70.350-13.314 69.867-11.277Q69.384-9.240 69.384-7.098Q69.384-4.284 70.203-3.276Q71.022-2.268 72.324-2.268M93.072-7.770L91.560 0L88.116 0L93.282-25.536L93.366-25.956Q93.408-26.376 93.408-26.880Q93.408-27.300 93.177-27.720Q92.946-28.140 92.106-28.140Q91.560-28.140 91.098-28.098L90.636-28.056L90.636-29.148L96.432-29.610L97.356-29.610L93.408-9.996L93.618-9.996L99.750-15.876Q100.212-16.338 100.464-16.695Q100.716-17.052 100.716-17.598Q100.716-18.186 100.212-18.375Q99.708-18.564 98.868-18.564L98.994-19.614L108.024-19.614L107.898-18.564Q105.756-18.522 104.559-17.745Q103.362-16.968 102.354-16.044L97.734-11.928L100.800-4.704Q101.262-3.654 101.703-3.045Q102.144-2.436 102.942-2.436Q104.160-2.436 104.916-3.150Q105.672-3.864 106.386-4.872L107.268-4.284Q107.058-3.906 106.575-3.129Q106.092-2.352 105.357-1.533Q104.622-0.714 103.635-0.147Q102.648 0.420 101.388 0.420Q100.338 0.420 99.645-0.147Q98.952-0.714 98.574-1.491Q98.196-2.268 97.944-2.856L95.256-9.912L93.072-7.770M117.894 0L107.226 0L107.478-1.260Q109.074-1.260 109.956-1.533Q110.838-1.806 111.300-2.667Q111.762-3.528 112.098-5.208L115.752-22.806Q116.046-24.360 115.836-25.095Q115.626-25.830 114.807-26.082Q113.988-26.334 112.476-26.334L112.728-27.594L123.648-27.594Q126.924-27.594 129.318-26.817Q131.712-26.040 133.266-24.612Q134.820-23.184 135.576-21.189Q136.332-19.194 136.332-16.716Q136.332-12.264 134.967-9.093Q133.602-5.922 131.124-3.906Q128.646-1.890 125.286-0.945Q121.926 0 117.894 0M117.894-1.638Q122.430-1.638 125.601-3.150Q128.772-4.662 130.452-7.917Q132.132-11.172 132.132-16.338Q132.132-18.270 131.691-19.992Q131.250-21.714 130.158-23.058Q129.066-24.402 127.071-25.158Q125.076-25.914 121.968-25.914Q121.422-25.914 121.065-25.893Q120.708-25.872 120.120-25.788L115.164-1.764Q115.752-1.680 116.424-1.659Q117.096-1.638 117.894-1.638M144.774 0.504Q142.464 0.504 141.120-0.567Q139.776-1.638 139.188-3.318Q138.600-4.998 138.600-6.846Q138.600-9.114 139.356-11.445Q140.112-13.776 141.540-15.750Q142.968-17.724 145.005-18.921Q147.042-20.118 149.604-20.118Q150.528-20.118 151.557-19.866Q152.586-19.614 153.342-18.795Q154.098-17.976 154.098-16.338Q154.098-14.322 152.901-12.873Q151.704-11.424 149.814-10.500Q147.924-9.576 145.824-9.114Q143.850-8.652 142.128-8.526Q142.128-8.232 142.128-7.938Q142.128-4.746 143.241-3.570Q144.354-2.394 146.454-2.394Q148.050-2.394 149.478-3.003Q150.906-3.612 152.124-5.124L152.880-4.494Q150.990-1.680 148.890-0.588Q146.790 0.504 144.774 0.504M142.296-9.744Q144.438-9.870 146.244-10.626Q148.176-11.466 149.331-12.957Q150.486-14.448 150.486-16.506Q150.486-17.640 150.087-18.228Q149.688-18.816 148.722-18.816Q147.336-18.816 146.139-17.703Q144.942-16.590 144.039-14.889Q143.136-13.188 142.632-11.340Q142.422-10.500 142.296-9.744M159.390 0.378Q158.130 0.378 157.437-0.189Q156.744-0.756 156.744-1.848Q156.744-2.394 156.891-3.255Q157.038-4.116 157.458-5.964L159.600-15.960L159.684-16.338Q159.726-16.716 159.726-17.262Q159.726-17.682 159.474-18.081Q159.222-18.480 158.382-18.480Q157.836-18.480 157.416-18.438L156.954-18.396L156.954-19.530L162.834-19.992L163.758-19.992L160.608-5.040L160.524-4.410Q160.398-3.738 160.398-3.276Q160.398-2.478 161.154-2.478Q162.246-2.478 163.086-3.297Q163.926-4.116 164.430-4.662L165.270-4.032Q164.556-3.024 163.716-1.995Q162.876-0.966 161.826-0.294Q160.776 0.378 159.390 0.378M162.456-23.352Q161.532-23.352 160.902-23.940Q160.272-24.528 160.272-25.620Q160.272-26.712 160.902-27.321Q161.532-27.930 162.582-27.930Q163.632-27.930 164.199-27.300Q164.766-26.670 164.766-25.620Q164.766-24.570 164.094-23.961Q163.422-23.352 162.456-23.352M171.108 0.378Q169.806 0.378 169.176-0.252Q168.546-0.882 168.546-1.848Q168.546-2.394 168.672-3.171Q168.798-3.948 168.840-4.242L171.696-17.976L169.302-17.976L169.470-18.858Q170.814-19.572 171.717-20.244Q172.620-20.916 173.439-22.008Q174.258-23.100 175.308-24.906L176.568-24.906L175.476-19.614L179.634-19.614L179.298-17.976L175.140-17.976L172.578-5.460L172.452-4.704Q172.284-3.906 172.284-3.360Q172.284-3.024 172.431-2.751Q172.578-2.478 172.998-2.478Q173.922-2.478 174.699-3.024Q175.476-3.570 176.568-4.998L177.408-4.368Q176.820-3.570 175.980-2.436Q175.140-1.302 173.964-0.462Q172.788 0.378 171.108 0.378M178.878 9.240Q178.038 9.240 177.282 8.883Q176.526 8.526 176.064 7.875Q175.602 7.224 175.602 6.384Q175.602 5.502 176.085 5.040Q176.568 4.578 177.240 4.578Q177.870 4.578 178.332 4.914Q178.794 5.250 179.130 5.712Q179.466 6.174 179.739 6.510Q180.012 6.846 180.264 6.846Q180.642 6.846 181.440 6.006Q182.238 5.166 183.162 3.948Q184.086 2.730 184.884 1.596Q185.388 0.840 185.724 0.336L183.330-14.406Q183.162-15.456 182.931-16.359Q182.700-17.262 182.112-17.808Q181.524-18.354 180.264-18.354Q179.970-18.354 179.697-18.333Q179.424-18.312 179.130-18.270L179.130-19.488L184.758-19.950L185.388-19.950Q185.850-19.152 186.144-18.354Q186.438-17.556 186.648-16.443Q186.858-15.330 187.110-13.650L188.034-7.518L188.412-3.318L188.664-3.318L193.494-11.088Q194.250-12.306 194.565-13.167Q194.880-14.028 194.880-14.532Q194.880-15.330 194.376-15.918Q193.872-16.506 193.347-17.136Q192.822-17.766 192.822-18.564Q192.822-19.278 193.284-19.761Q193.746-20.244 194.628-20.244Q195.720-20.244 196.518-19.425Q197.316-18.606 197.316-16.842Q197.316-15.708 196.896-14.385Q196.476-13.062 195.510-11.256Q194.712-9.786 193.620-8.043Q192.528-6.300 191.436-4.704Q190.344-3.108 189.567-1.974Q188.790-0.840 188.622-0.630Q186.354 2.604 184.695 4.809Q183.036 7.014 181.671 8.127Q180.306 9.240 178.878 9.240" fill="#312F2B"/>
</g>
<path d="M45.4013 0C45.0006 0.177515 44.6068 0.369521 44.2205 0.575396C43.961 0.713726 43.7049 0.858323 43.4523 1.009H26.5609C25.8041 1.46054 25.0793 1.96669 24.3913 2.5225H7.49987C6.91806 2.99249 6.36248 3.49799 5.83594 4.036H65.4723C64.3231 2.86172 63.0356 1.84235 61.6389 1.009C61.0104 0.634066 60.3599 0.296788 59.6899 0H45.4013Z" fill="#66C5F1"/>
<path d="M2.78542 8.07246C2.50322 8.56337 2.24009 9.06827 1.99707 9.58596H69.3104C68.6037 8.0807 67.7268 6.68358 66.707 5.42383H38.3833C38.0862 5.79079 37.8013 6.1694 37.5292 6.55895H20.6377C20.2969 7.04678 19.9762 7.55175 19.6769 8.07246H2.78542Z" fill="#D772EC"/>
<path d="M17.8988 12.1078H34.7903C34.9128 11.724 35.0459 11.3455 35.189 10.9727H69.9012C70.4089 12.2952 70.7896 13.6884 71.027 15.1348H0.280273C0.36424 14.6234 0.466078 14.1186 0.585155 13.6213H17.4766C17.5994 13.1086 17.7403 12.6038 17.8988 12.1078Z" fill="#F64F39"/>
<path d="M33.8002 17.6576H16.9088C16.8935 17.9918 16.8857 18.3282 16.8857 18.6666C16.8857 18.8352 16.8876 19.0034 16.8915 19.1711H0C0.0116271 19.6805 0.0407807 20.1852 0.0869454 20.6846H71.2211C71.2824 20.0209 71.3138 19.3477 71.3138 18.6666C71.3138 17.9423 71.2783 17.227 71.2091 16.5225H33.8819C33.845 16.8979 33.8177 17.2763 33.8002 17.6576Z" fill="#FA9D2E"/>
<path d="M0.853516 24.7199C1.00358 25.2336 1.1722 25.7384 1.35858 26.2334H69.9496C70.4478 24.91 70.8193 23.5168 71.0478 22.0713H34.0434C34.1038 22.4534 34.1742 22.8319 34.2543 23.2064H17.3627C17.4722 23.7186 17.6 24.2234 17.745 24.7199H0.853516Z" fill="#FFCE43"/>
<path d="M4.49942 31.7832C4.11321 31.2981 3.74796 30.7931 3.40527 30.2697H20.2968C19.9766 29.7808 19.6762 29.2758 19.3966 28.7562H36.2881C36.0884 28.3852 35.8995 28.0066 35.7217 27.6211H69.3694C68.676 29.1242 67.8135 30.5212 66.8086 31.7832H4.49942Z" fill="#1DCDA1"/>
<path d="M8.87012 35.8195C9.74095 36.4013 10.6593 36.9086 11.6175 37.333H59.6891C61.9013 36.3531 63.9012 34.9317 65.5938 33.1709H39.4957C39.8764 33.5668 40.2725 33.9456 40.683 34.306H23.7916C24.416 34.8543 25.074 35.3601 25.7616 35.8195H8.87012Z" fill="#398AC7"/>
</svg>