<svg width="306" height="41" viewBox="0 0 306 41" fill="none" xmlns="http://www.w3.org/2000/svg">
<g transform="translate(88.576 40.000) scale(1.524540 1)">
<path d="M11.550-1.260L11.298 0L-0.378 0L-0.126-1.260Q1.470-1.260 2.331-1.554Q3.192-1.848 3.612-2.709Q4.032-3.570 4.368-5.334L4.368-5.334L8.106-23.394Q8.442-25.242 7.707-25.788Q6.972-26.334 4.872-26.334L4.872-26.334L5.124-27.594L15.330-27.594Q17.934-27.594 19.971-27.069Q22.008-26.544 23.205-25.284Q24.402-24.024 24.402-21.798L24.402-21.798Q24.402-19.068 23.268-17.199Q22.134-15.330 20.265-14.175Q18.396-13.020 16.149-12.516Q13.902-12.012 11.634-12.012L11.634-12.012Q10.878-12.012 10.290-12.138L10.290-12.138Q9.828-12.222 9.576-12.348L9.576-12.348L8.106-5.166Q7.770-3.444 7.938-2.604Q8.106-1.764 8.988-1.512Q9.870-1.260 11.550-1.260L11.550-1.260ZM12.306-25.788L9.870-13.902Q10.164-13.860 10.542-13.818L10.542-13.818Q11.046-13.734 11.844-13.734L11.844-13.734Q14.322-13.734 16.233-14.511Q18.144-15.288 19.236-16.947Q20.328-18.606 20.328-21.294L20.328-21.294Q20.328-23.394 19.047-24.675Q17.766-25.956 14.574-25.956L14.574-25.956Q13.902-25.956 13.461-25.914Q13.020-25.872 12.306-25.788L12.306-25.788ZM35.070-1.260L34.818 0L23.352 0L23.604-1.260Q25.326-1.260 26.187-1.554Q27.048-1.848 27.468-2.751Q27.888-3.654 28.266-5.502L28.266-5.502L31.710-22.050Q32.088-23.688 32.067-24.633Q32.046-25.578 31.290-25.956Q30.534-26.334 28.602-26.334L28.602-26.334L28.854-27.594L40.488-27.594L40.236-26.334Q38.388-26.334 37.464-25.956Q36.540-25.578 36.162-24.633Q35.784-23.688 35.448-22.050L35.448-22.050L32.004-5.334Q31.668-3.528 31.752-2.646Q31.836-1.764 32.613-1.512Q33.390-1.260 35.070-1.260L35.070-1.260ZM63.378-1.218L63.126 0L51.828 0L52.080-1.218L52.500-1.218Q53.802-1.218 54.495-1.512Q55.188-1.806 55.188-2.688L55.188-2.688Q55.188-3.234 54.978-4.011Q54.768-4.788 54.264-5.964L54.264-5.964L52.416-10.038L51.660-12.222L51.534-12.222L44.940-5.082Q44.604-4.746 44.142-4.200Q43.680-3.654 43.323-3.150Q42.966-2.646 42.966-2.310L42.966-2.310Q42.966-1.764 43.449-1.491Q43.932-1.218 45.486-1.218L45.486-1.218L45.234 0L35.994 0L36.204-1.218Q37.296-1.260 38.052-1.533Q38.808-1.806 39.648-2.520Q40.488-3.234 41.748-4.536L41.748-4.536L50.736-13.860L46.662-22.764Q45.990-24.234 45.465-25.011Q44.940-25.788 44.184-26.061Q43.428-26.334 42-26.334L42-26.334L42.252-27.594L53.466-27.594L53.214-26.334L52.752-26.334Q51.576-26.334 50.904-26.040Q50.232-25.746 50.232-24.990L50.232-24.990Q50.232-24.360 50.736-23.226Q51.240-22.092 51.870-20.496L51.870-20.496L53.382-16.548L53.508-16.548L59.136-22.764Q59.850-23.604 60.354-24.297Q60.858-24.990 60.858-25.410L60.858-25.410Q60.858-25.872 60.438-26.103Q60.018-26.334 58.590-26.334L58.590-26.334L58.800-27.594L68.418-27.594L68.208-26.334Q66.864-26.292 65.940-25.998Q65.016-25.704 64.050-24.927Q63.084-24.150 61.572-22.596L61.572-22.596L54.222-15.036L59.640-3.738Q60.354-2.226 61.089-1.743Q61.824-1.260 63.378-1.218L63.378-1.218ZM88.578-7.812L86.310 0L64.512 0L64.764-1.260Q66.234-1.260 67.095-1.512Q67.956-1.764 68.460-2.499Q68.964-3.234 69.258-4.704L69.258-4.704L72.954-22.470Q73.290-24.066 73.185-24.906Q73.080-25.746 72.282-26.040Q71.484-26.334 69.762-26.334L69.762-26.334L70.014-27.594L91.518-27.594L90.384-20.706L89.082-20.706Q89.208-22.806 88.788-23.940Q88.368-25.074 87.087-25.515Q85.806-25.956 83.202-25.956L83.202-25.956L77.364-25.956L75.138-15.036L79.758-15.036Q81.690-15.036 82.782-15.372Q83.874-15.708 84.420-16.632Q84.966-17.556 85.302-19.236L85.302-19.236L86.646-19.236L84.672-9.492L83.370-9.492Q83.706-11.256 83.496-12.096Q83.286-12.936 82.320-13.188Q81.354-13.440 79.422-13.440L79.422-13.440L74.802-13.440L72.408-1.638L77.490-1.638Q79.926-1.638 81.396-1.890Q82.866-2.142 83.790-2.814Q84.714-3.486 85.470-4.704Q86.226-5.922 87.234-7.812L87.234-7.812L88.578-7.812ZM113.568-8.190L111.048 0L90.300 0L90.552-1.260Q92.190-1.260 93.051-1.554Q93.912-1.848 94.374-2.688Q94.836-3.528 95.172-5.208L95.172-5.208L98.784-22.722Q99.078-24.108 98.994-24.906Q98.910-25.704 98.133-26.019Q97.356-26.334 95.550-26.334L95.550-26.334L95.802-27.594L107.730-27.594L107.520-26.334Q106.008-26.334 105.021-26.061Q104.034-25.788 103.446-24.990Q102.858-24.192 102.522-22.680L102.522-22.680L98.700-3.864Q98.406-2.478 98.994-2.037Q99.582-1.596 101.430-1.596L101.430-1.596L103.404-1.596Q105.420-1.596 106.680-1.953Q107.940-2.310 108.822-3.066Q109.704-3.822 110.481-5.103Q111.258-6.384 112.224-8.190L112.224-8.190L113.568-8.190ZM121.212-1.260L120.918 0L112.140 0L112.434-1.260Q113.610-1.260 114.408-1.638Q115.206-2.016 116.172-3.171Q117.138-4.326 118.692-6.720L118.692-6.720L133.224-27.762L134.988-27.762L138.306-4.998Q138.726-2.940 139.398-2.100Q140.070-1.260 141.960-1.260L141.960-1.260L141.708 0L130.494 0L130.746-1.260Q131.796-1.260 132.531-1.428Q133.266-1.596 133.686-2.100Q134.106-2.604 134.106-3.654L134.106-3.654Q134.106-4.158 134.085-4.599Q134.064-5.040 134.022-5.418L134.022-5.418L133.602-9.198L122.724-9.198L119.826-4.746Q119.406-4.158 119.091-3.570Q118.776-2.982 118.776-2.394L118.776-2.394Q118.776-1.722 119.301-1.491Q119.826-1.260 121.212-1.260L121.212-1.260ZM123.816-10.878L133.434-10.878L132.048-23.016L131.922-23.016L123.816-10.878Z" fill="#FFFFFF" fill-opacity="0.3" transform="translate(0 1)"/>
<path d="M11.550-1.260L11.298 0L-0.378 0L-0.126-1.260Q1.470-1.260 2.331-1.554Q3.192-1.848 3.612-2.709Q4.032-3.570 4.368-5.334L4.368-5.334L8.106-23.394Q8.442-25.242 7.707-25.788Q6.972-26.334 4.872-26.334L4.872-26.334L5.124-27.594L15.330-27.594Q17.934-27.594 19.971-27.069Q22.008-26.544 23.205-25.284Q24.402-24.024 24.402-21.798L24.402-21.798Q24.402-19.068 23.268-17.199Q22.134-15.330 20.265-14.175Q18.396-13.020 16.149-12.516Q13.902-12.012 11.634-12.012L11.634-12.012Q10.878-12.012 10.290-12.138L10.290-12.138Q9.828-12.222 9.576-12.348L9.576-12.348L8.106-5.166Q7.770-3.444 7.938-2.604Q8.106-1.764 8.988-1.512Q9.870-1.260 11.550-1.260L11.550-1.260ZM12.306-25.788L9.870-13.902Q10.164-13.860 10.542-13.818L10.542-13.818Q11.046-13.734 11.844-13.734L11.844-13.734Q14.322-13.734 16.233-14.511Q18.144-15.288 19.236-16.947Q20.328-18.606 20.328-21.294L20.328-21.294Q20.328-23.394 19.047-24.675Q17.766-25.956 14.574-25.956L14.574-25.956Q13.902-25.956 13.461-25.914Q13.020-25.872 12.306-25.788L12.306-25.788ZM35.070-1.260L34.818 0L23.352 0L23.604-1.260Q25.326-1.260 26.187-1.554Q27.048-1.848 27.468-2.751Q27.888-3.654 28.266-5.502L28.266-5.502L31.710-22.050Q32.088-23.688 32.067-24.633Q32.046-25.578 31.290-25.956Q30.534-26.334 28.602-26.334L28.602-26.334L28.854-27.594L40.488-27.594L40.236-26.334Q38.388-26.334 37.464-25.956Q36.540-25.578 36.162-24.633Q35.784-23.688 35.448-22.050L35.448-22.050L32.004-5.334Q31.668-3.528 31.752-2.646Q31.836-1.764 32.613-1.512Q33.390-1.260 35.070-1.260L35.070-1.260ZM63.378-1.218L63.126 0L51.828 0L52.080-1.218L52.500-1.218Q53.802-1.218 54.495-1.512Q55.188-1.806 55.188-2.688L55.188-2.688Q55.188-3.234 54.978-4.011Q54.768-4.788 54.264-5.964L54.264-5.964L52.416-10.038L51.660-12.222L51.534-12.222L44.940-5.082Q44.604-4.746 44.142-4.200Q43.680-3.654 43.323-3.150Q42.966-2.646 42.966-2.310L42.966-2.310Q42.966-1.764 43.449-1.491Q43.932-1.218 45.486-1.218L45.486-1.218L45.234 0L35.994 0L36.204-1.218Q37.296-1.260 38.052-1.533Q38.808-1.806 39.648-2.520Q40.488-3.234 41.748-4.536L41.748-4.536L50.736-13.860L46.662-22.764Q45.990-24.234 45.465-25.011Q44.940-25.788 44.184-26.061Q43.428-26.334 42-26.334L42-26.334L42.252-27.594L53.466-27.594L53.214-26.334L52.752-26.334Q51.576-26.334 50.904-26.040Q50.232-25.746 50.232-24.990L50.232-24.990Q50.232-24.360 50.736-23.226Q51.240-22.092 51.870-20.496L51.870-20.496L53.382-16.548L53.508-16.548L59.136-22.764Q59.850-23.604 60.354-24.297Q60.858-24.990 60.858-25.410L60.858-25.410Q60.858-25.872 60.438-26.103Q60.018-26.334 58.590-26.334L58.590-26.334L58.800-27.594L68.418-27.594L68.208-26.334Q66.864-26.292 65.940-25.998Q65.016-25.704 64.050-24.927Q63.084-24.150 61.572-22.596L61.572-22.596L54.222-15.036L59.640-3.738Q60.354-2.226 61.089-1.743Q61.824-1.260 63.378-1.218L63.378-1.218ZM88.578-7.812L86.310 0L64.512 0L64.764-1.260Q66.234-1.260 67.095-1.512Q67.956-1.764 68.460-2.499Q68.964-3.234 69.258-4.704L69.258-4.704L72.954-22.470Q73.290-24.066 73.185-24.906Q73.080-25.746 72.282-26.040Q71.484-26.334 69.762-26.334L69.762-26.334L70.014-27.594L91.518-27.594L90.384-20.706L89.082-20.706Q89.208-22.806 88.788-23.940Q88.368-25.074 87.087-25.515Q85.806-25.956 83.202-25.956L83.202-25.956L77.364-25.956L75.138-15.036L79.758-15.036Q81.690-15.036 82.782-15.372Q83.874-15.708 84.420-16.632Q84.966-17.556 85.302-19.236L85.302-19.236L86.646-19.236L84.672-9.492L83.370-9.492Q83.706-11.256 83.496-12.096Q83.286-12.936 82.320-13.188Q81.354-13.440 79.422-13.440L79.422-13.440L74.802-13.440L72.408-1.638L77.490-1.638Q79.926-1.638 81.396-1.890Q82.866-2.142 83.790-2.814Q84.714-3.486 85.470-4.704Q86.226-5.922 87.234-7.812L87.234-7.812L88.578-7.812ZM113.568-8.190L111.048 0L90.300 0L90.552-1.260Q92.190-1.260 93.051-1.554Q93.912-1.848 94.374-2.688Q94.836-3.528 95.172-5.208L95.172-5.208L98.784-22.722Q99.078-24.108 98.994-24.906Q98.910-25.704 98.133-26.019Q97.356-26.334 95.550-26.334L95.550-26.334L95.802-27.594L107.730-27.594L107.520-26.334Q106.008-26.334 105.021-26.061Q104.034-25.788 103.446-24.990Q102.858-24.192 102.522-22.680L102.522-22.680L98.700-3.864Q98.406-2.478 98.994-2.037Q99.582-1.596 101.430-1.596L101.430-1.596L103.404-1.596Q105.420-1.596 106.680-1.953Q107.940-2.310 108.822-3.066Q109.704-3.822 110.481-5.103Q111.258-6.384 112.224-8.190L112.224-8.190L113.568-8.190ZM121.212-1.260L120.918 0L112.140 0L112.434-1.260Q113.610-1.260 114.408-1.638Q115.206-2.016 116.172-3.171Q117.138-4.326 118.692-6.720L118.692-6.720L133.224-27.762L134.988-27.762L138.306-4.998Q138.726-2.940 139.398-2.100Q140.070-1.260 141.960-1.260L141.960-1.260L141.708 0L130.494 0L130.746-1.260Q131.796-1.260 132.531-1.428Q133.266-1.596 133.686-2.100Q134.106-2.604 134.106-3.654L134.106-3.654Q134.106-4.158 134.085-4.599Q134.064-5.040 134.022-5.418L134.022-5.418L133.602-9.198L122.724-9.198L119.826-4.746Q119.406-4.158 119.091-3.570Q118.776-2.982 118.776-2.394L118.776-2.394Q118.776-1.722 119.301-1.491Q119.826-1.260 121.212-1.260L121.212-1.260ZM123.816-10.878L133.434-10.878L132.048-23.016L131.922-23.016L123.816-10.878Z" fill="#FCF9F3"/>
</g>
<path d="M45.4013 0C45.0006 0.177515 44.6068 0.369521 44.2205 0.575396C43.961 0.713726 43.7049 0.858323 43.4523 1.009H26.5609C25.8041 1.46054 25.0793 1.96669 24.3913 2.5225H7.49987C6.91806 2.99249 6.36248 3.49799 5.83594 4.036H65.4723C64.3231 2.86172 63.0356 1.84235 61.6389 1.009C61.0104 0.634066 60.3599 0.296788 59.6899 0H45.4013Z" fill="#66C5F1"/>
<path d="M2.78542 8.07246C2.50322 8.56337 2.24009 9.06827 1.99707 9.58596H69.3104C68.6037 8.0807 67.7268 6.68358 66.707 5.42383H38.3833C38.0862 5.79079 37.8013 6.1694 37.5292 6.55895H20.6377C20.2969 7.04678 19.9762 7.55175 19.6769 8.07246H2.78542Z" fill="#D772EC"/>
<path d="M17.8988 12.1078H34.7903C34.9128 11.724 35.0459 11.3455 35.189 10.9727H69.9012C70.4089 12.2952 70.7896 13.6884 71.027 15.1348H0.280273C0.36424 14.6234 0.466078 14.1186 0.585155 13.6213H17.4766C17.5994 13.1086 17.7403 12.6038 17.8988 12.1078Z" fill="#F64F39"/>
<path d="M33.8002 17.6576H16.9088C16.8935 17.9918 16.8857 18.3282 16.8857 18.6666C16.8857 18.8352 16.8876 19.0034 16.8915 19.1711H0C0.0116271 19.6805 0.0407807 20.1852 0.0869454 20.6846H71.2211C71.2824 20.0209 71.3138 19.3477 71.3138 18.6666C71.3138 17.9423 71.2783 17.227 71.2091 16.5225H33.8819C33.845 16.8979 33.8177 17.2763 33.8002 17.6576Z" fill="#FA9D2E"/>
<path d="M0.853516 24.7199C1.00358 25.2336 1.1722 25.7384 1.35858 26.2334H69.9496C70.4478 24.91 70.8193 23.5168 71.0478 22.0713H34.0434C34.1038 22.4534 34.1742 22.8319 34.2543 23.2064H17.3627C17.4722 23.7186 17.6 24.2234 17.745 24.7199H0.853516Z" fill="#FFCE43"/>
<path d="M4.49942 31.7832C4.11321 31.2981 3.74796 30.7931 3.40527 30.2697H20.2968C19.9766 29.7808 19.6762 29.2758 19.3966 28.7562H36.2881C36.0884 28.3852 35.8995 28.0066 35.7217 27.6211H69.3694C68.676 29.1242 67.8135 30.5212 66.8086 31.7832H4.49942Z" fill="#1DCDA1"/>
<path d="M8.87012 35.8195C9.74095 36.4013 10.6593 36.9086 11.6175 37.333H59.6891C61.9013 36.3531 63.9012 34.9317 65.5938 33.1709H39.4957C39.8764 33.5668 40.2725 33.9456 40.683 34.306H23.7916C24.416 34.8543 25.074 35.3601 25.7616 35.8195H8.87012Z" fill="#398AC7"/>
</svg>