<svg width="306" height="41" viewBox="0 0 306 41" fill="none" xmlns="http://www.w3.org/2000/svg">
<g transform="translate(85.623 39.370) scale(2.358132 1)">
<path d="M2.268 0.630L2.268 0.630L1.008 0.630L2.772-8.442L3.948-8.442Q4.158-5.544 4.767-3.990Q5.376-2.436 6.636-1.848Q7.896-1.260 9.996-1.260L9.996-1.260Q11.760-1.260 13.125-1.785Q14.490-2.310 15.288-3.381Q16.086-4.452 16.086-6.048L16.086-6.048Q16.128-7.854 15.309-9.114Q14.490-10.374 13.188-11.361Q11.886-12.348 10.374-13.272L10.374-13.272Q8.988-14.154 7.833-15.078Q6.678-16.002 5.985-17.283Q5.292-18.564 5.292-20.496L5.292-20.496Q5.292-22.932 6.594-24.612Q7.896-26.292 9.996-27.153Q12.096-28.014 14.448-28.014L14.448-28.014Q16.296-28.014 17.325-27.720Q18.354-27.426 18.942-27.111Q19.530-26.796 19.992-26.796L19.992-26.796Q20.538-26.796 20.937-27.069Q21.336-27.342 21.630-28.014L21.630-28.014L22.638-28.014L21.210-19.866L19.992-19.866Q19.866-23.352 18.732-24.927Q17.598-26.502 14.406-26.502L14.406-26.502Q11.802-26.502 10.332-25.242Q8.862-23.982 8.862-21.714L8.862-21.714Q8.862-20.454 9.555-19.404Q10.248-18.354 11.424-17.472Q12.600-16.590 13.944-15.750L13.944-15.750Q15.498-14.742 16.863-13.734Q18.228-12.726 19.110-11.382Q19.992-10.038 19.992-8.022L19.992-8.022Q19.992-5.334 18.648-3.444Q17.304-1.554 15.078-0.525Q12.852 0.504 10.248 0.504L10.248 0.504Q8.064 0.504 6.804 0.189Q5.544-0.126 4.851-0.441Q4.158-0.756 3.654-0.756L3.654-0.756Q3.234-0.756 2.814-0.378Q2.394 0 2.268 0.630ZM33.642-1.260L33.390 0L21.882 0L22.134-1.260Q23.814-1.260 24.675-1.533Q25.536-1.806 25.977-2.730Q26.418-3.654 26.796-5.502L26.796-5.502L30.240-22.050Q30.618-23.730 30.555-24.654Q30.492-25.578 29.736-25.956Q28.980-26.334 27.132-26.334L27.132-26.334L27.384-27.594L38.934-27.594L38.724-26.334Q36.792-26.334 35.931-25.956Q35.070-25.578 34.713-24.633Q34.356-23.688 33.978-22.050L33.978-22.050L32.550-14.994L46.116-14.994L47.586-22.050Q47.964-23.688 47.985-24.633Q48.006-25.578 47.313-25.956Q46.620-26.334 44.730-26.334L44.730-26.334L44.982-27.594L56.238-27.594L55.986-26.334Q54.138-26.334 53.277-25.956Q52.416-25.578 52.080-24.654Q51.744-23.730 51.366-22.050L51.366-22.050L47.964-5.502Q47.586-3.696 47.628-2.793Q47.670-1.890 48.447-1.575Q49.224-1.260 50.988-1.260L50.988-1.260L50.736 0L39.648 0L39.858-1.260Q41.496-1.260 42.273-1.554Q43.050-1.848 43.407-2.772Q43.764-3.696 44.142-5.502L44.142-5.502L45.780-13.356L32.214-13.356L30.618-5.502Q30.240-3.654 30.303-2.751Q30.366-1.848 31.143-1.554Q31.920-1.260 33.642-1.260L33.642-1.260ZM65.394-1.260L65.142 0L53.676 0L53.928-1.260Q55.650-1.260 56.511-1.554Q57.372-1.848 57.792-2.751Q58.212-3.654 58.590-5.502L58.590-5.502L62.034-22.050Q62.412-23.688 62.391-24.633Q62.370-25.578 61.614-25.956Q60.858-26.334 58.926-26.334L58.926-26.334L59.178-27.594L70.812-27.594L70.560-26.334Q68.712-26.334 67.788-25.956Q66.864-25.578 66.486-24.633Q66.108-23.688 65.772-22.050L65.772-22.050L62.328-5.334Q61.992-3.528 62.076-2.646Q62.160-1.764 62.937-1.512Q63.714-1.260 65.394-1.260L65.394-1.260ZM80.178-1.260L79.926 0L68.250 0L68.502-1.260Q70.098-1.260 70.959-1.554Q71.820-1.848 72.240-2.709Q72.660-3.570 72.996-5.334L72.996-5.334L76.734-23.394Q77.070-25.242 76.335-25.788Q75.600-26.334 73.500-26.334L73.500-26.334L73.752-27.594L83.958-27.594Q86.562-27.594 88.599-27.069Q90.636-26.544 91.833-25.284Q93.030-24.024 93.030-21.798L93.030-21.798Q93.030-19.068 91.896-17.199Q90.762-15.330 88.893-14.175Q87.024-13.020 84.777-12.516Q82.530-12.012 80.262-12.012L80.262-12.012Q79.506-12.012 78.918-12.138L78.918-12.138Q78.456-12.222 78.204-12.348L78.204-12.348L76.734-5.166Q76.398-3.444 76.566-2.604Q76.734-1.764 77.616-1.512Q78.498-1.260 80.178-1.260L80.178-1.260ZM80.934-25.788L78.498-13.902Q78.792-13.860 79.170-13.818L79.170-13.818Q79.674-13.734 80.472-13.734L80.472-13.734Q82.950-13.734 84.861-14.511Q86.772-15.288 87.864-16.947Q88.956-18.606 88.956-21.294L88.956-21.294Q88.956-23.394 87.675-24.675Q86.394-25.956 83.202-25.956L83.202-25.956Q82.530-25.956 82.089-25.914Q81.648-25.872 80.934-25.788L80.934-25.788Z" fill="#000000" fill-opacity="0.3" transform="translate(0 1)"/>
<path d="M2.268 0.630L2.268 0.630L1.008 0.630L2.772-8.442L3.948-8.442Q4.158-5.544 4.767-3.990Q5.376-2.436 6.636-1.848Q7.896-1.260 9.996-1.260L9.996-1.260Q11.760-1.260 13.125-1.785Q14.490-2.310 15.288-3.381Q16.086-4.452 16.086-6.048L16.086-6.048Q16.128-7.854 15.309-9.114Q14.490-10.374 13.188-11.361Q11.886-12.348 10.374-13.272L10.374-13.272Q8.988-14.154 7.833-15.078Q6.678-16.002 5.985-17.283Q5.292-18.564 5.292-20.496L5.292-20.496Q5.292-22.932 6.594-24.612Q7.896-26.292 9.996-27.153Q12.096-28.014 14.448-28.014L14.448-28.014Q16.296-28.014 17.325-27.720Q18.354-27.426 18.942-27.111Q19.530-26.796 19.992-26.796L19.992-26.796Q20.538-26.796 20.937-27.069Q21.336-27.342 21.630-28.014L21.630-28.014L22.638-28.014L21.210-19.866L19.992-19.866Q19.866-23.352 18.732-24.927Q17.598-26.502 14.406-26.502L14.406-26.502Q11.802-26.502 10.332-25.242Q8.862-23.982 8.862-21.714L8.862-21.714Q8.862-20.454 9.555-19.404Q10.248-18.354 11.424-17.472Q12.600-16.590 13.944-15.750L13.944-15.750Q15.498-14.742 16.863-13.734Q18.228-12.726 19.110-11.382Q19.992-10.038 19.992-8.022L19.992-8.022Q19.992-5.334 18.648-3.444Q17.304-1.554 15.078-0.525Q12.852 0.504 10.248 0.504L10.248 0.504Q8.064 0.504 6.804 0.189Q5.544-0.126 4.851-0.441Q4.158-0.756 3.654-0.756L3.654-0.756Q3.234-0.756 2.814-0.378Q2.394 0 2.268 0.630ZM33.642-1.260L33.390 0L21.882 0L22.134-1.260Q23.814-1.260 24.675-1.533Q25.536-1.806 25.977-2.730Q26.418-3.654 26.796-5.502L26.796-5.502L30.240-22.050Q30.618-23.730 30.555-24.654Q30.492-25.578 29.736-25.956Q28.980-26.334 27.132-26.334L27.132-26.334L27.384-27.594L38.934-27.594L38.724-26.334Q36.792-26.334 35.931-25.956Q35.070-25.578 34.713-24.633Q34.356-23.688 33.978-22.050L33.978-22.050L32.550-14.994L46.116-14.994L47.586-22.050Q47.964-23.688 47.985-24.633Q48.006-25.578 47.313-25.956Q46.620-26.334 44.730-26.334L44.730-26.334L44.982-27.594L56.238-27.594L55.986-26.334Q54.138-26.334 53.277-25.956Q52.416-25.578 52.080-24.654Q51.744-23.730 51.366-22.050L51.366-22.050L47.964-5.502Q47.586-3.696 47.628-2.793Q47.670-1.890 48.447-1.575Q49.224-1.260 50.988-1.260L50.988-1.260L50.736 0L39.648 0L39.858-1.260Q41.496-1.260 42.273-1.554Q43.050-1.848 43.407-2.772Q43.764-3.696 44.142-5.502L44.142-5.502L45.780-13.356L32.214-13.356L30.618-5.502Q30.240-3.654 30.303-2.751Q30.366-1.848 31.143-1.554Q31.920-1.260 33.642-1.260L33.642-1.260ZM65.394-1.260L65.142 0L53.676 0L53.928-1.260Q55.650-1.260 56.511-1.554Q57.372-1.848 57.792-2.751Q58.212-3.654 58.590-5.502L58.590-5.502L62.034-22.050Q62.412-23.688 62.391-24.633Q62.370-25.578 61.614-25.956Q60.858-26.334 58.926-26.334L58.926-26.334L59.178-27.594L70.812-27.594L70.560-26.334Q68.712-26.334 67.788-25.956Q66.864-25.578 66.486-24.633Q66.108-23.688 65.772-22.050L65.772-22.050L62.328-5.334Q61.992-3.528 62.076-2.646Q62.160-1.764 62.937-1.512Q63.714-1.260 65.394-1.260L65.394-1.260ZM80.178-1.260L79.926 0L68.250 0L68.502-1.260Q70.098-1.260 70.959-1.554Q71.820-1.848 72.240-2.709Q72.660-3.570 72.996-5.334L72.996-5.334L76.734-23.394Q77.070-25.242 76.335-25.788Q75.600-26.334 73.500-26.334L73.500-26.334L73.752-27.594L83.958-27.594Q86.562-27.594 88.599-27.069Q90.636-26.544 91.833-25.284Q93.030-24.024 93.030-21.798L93.030-21.798Q93.030-19.068 91.896-17.199Q90.762-15.330 88.893-14.175Q87.024-13.020 84.777-12.516Q82.530-12.012 80.262-12.012L80.262-12.012Q79.506-12.012 78.918-12.138L78.918-12.138Q78.456-12.222 78.204-12.348L78.204-12.348L76.734-5.166Q76.398-3.444 76.566-2.604Q76.734-1.764 77.616-1.512Q78.498-1.260 80.178-1.260L80.178-1.260ZM80.934-25.788L78.498-13.902Q78.792-13.860 79.170-13.818L79.170-13.818Q79.674-13.734 80.472-13.734L80.472-13.734Q82.950-13.734 84.861-14.511Q86.772-15.288 87.864-16.947Q88.956-18.606 88.956-21.294L88.956-21.294Q88.956-23.394 87.675-24.675Q86.394-25.956 83.202-25.956L83.202-25.956Q82.530-25.956 82.089-25.914Q81.648-25.872 80.934-25.788L80.934-25.788Z" fill="#312F2B"/>
</g>
<path d="M45.4013 0C45.0006 0.177515 44.6068 0.369521 44.2205 0.575396C43.961 0.713726 43.7049 0.858323 43.4523 1.009H26.5609C25.8041 1.46054 25.0793 1.96669 24.3913 2.5225H7.49987C6.91806 2.99249 6.36248 3.49799 5.83594 4.036H65.4723C64.3231 2.86172 63.0356 1.84235 61.6389 1.009C61.0104 0.634066 60.3599 0.296788 59.6899 0H45.4013Z" fill="#66C5F1"/>
<path d="M2.78542 8.07246C2.50322 8.56337 2.24009 9.06827 1.99707 9.58596H69.3104C68.6037 8.0807 67.7268 6.68358 66.707 5.42383H38.3833C38.0862 5.79079 37.8013 6.1694 37.5292 6.55895H20.6377C20.2969 7.04678 19.9762 7.55175 19.6769 8.07246H2.78542Z" fill="#D772EC"/>
<path d="M17.8988 12.1078H34.7903C34.9128 11.724 35.0459 11.3455 35.189 10.9727H69.9012C70.4089 12.2952 70.7896 13.6884 71.027 15.1348H0.280273C0.36424 14.6234 0.466078 14.1186 0.585155 13.6213H17.4766C17.5994 13.1086 17.7403 12.6038 17.8988 12.1078Z" fill="#F64F39"/>
<path d="M33.8002 17.6576H16.9088C16.8935 17.9918 16.8857 18.3282 16.8857 18.6666C16.8857 18.8352 16.8876 19.0034 16.8915 19.1711H0C0.0116271 19.6805 0.0407807 20.1852 0.0869454 20.6846H71.2211C71.2824 20.0209 71.3138 19.3477 71.3138 18.6666C71.3138 17.9423 71.2783 17.227 71.2091 16.5225H33.8819C33.845 16.8979 33.8177 17.2763 33.8002 17.6576Z" fill="#FA9D2E"/>
<path d="M0.853516 24.7199C1.00358 25.2336 1.1722 25.7384 1.35858 26.2334H69.9496C70.4478 24.91 70.8193 23.5168 71.0478 22.0713H34.0434C34.1038 22.4534 34.1742 22.8319 34.2543 23.2064H17.3627C17.4722 23.7186 17.6 24.2234 17.745 24.7199H0.853516Z" fill="#FFCE43"/>
<path d="M4.49942 31.7832C4.11321 31.2981 3.74796 30.7931 3.40527 30.2697H20.2968C19.9766 29.7808 19.6762 29.2758 19.3966 28.7562H36.2881C36.0884 28.3852 35.8995 28.0066 35.7217 27.6211H69.3694C68.676 29.1242 67.8135 30.5212 66.8086 31.7832H4.49942Z" fill="#1DCDA1"/>
<path d="M8.87012 35.8195C9.74095 36.4013 10.6593 36.9086 11.6175 37.333H59.6891C61.9013 36.3531 63.9012 34.9317 65.5938 33.1709H39.4957C39.8764 33.5668 40.2725 33.9456 40.683 34.306H23.7916C24.416 34.8543 25.074 35.3601 25.7616 35.8195H8.87012Z" fill="#398AC7"/>
</svg>